<svg width="115" height="50" viewBox="0 0 115 50" fill="none" xmlns="http://www.w3.org/2000/svg">
<path d="M0.18 28V24.472H2.592C3.36 24.472 3.84 24.364 4.032 24.148C4.224 23.956 4.32 23.536 4.32 22.888V2.8H8.424V23.212C8.424 24.412 8.244 25.384 7.884 26.128C7.284 27.376 6.084 28 4.284 28H0.18ZM20.936 28H17.264V26.128H17.192C16.88 26.728 16.52 27.22 16.112 27.604C15.584 28.108 14.828 28.36 13.844 28.36C12.404 28.36 11.432 27.82 10.928 26.74C10.688 26.212 10.568 25.444 10.568 24.436V9.568H14.456V22.852C14.456 23.62 14.504 24.1 14.6 24.292C14.768 24.748 15.14 24.976 15.716 24.976C16.244 24.976 16.616 24.748 16.832 24.292C16.976 23.98 17.048 23.5 17.048 22.852V9.568H20.936V28ZM33.4558 28H29.5678V14.608C29.5678 13.816 29.5078 13.3 29.3878 13.06C29.1958 12.604 28.8358 12.376 28.3078 12.376C27.8038 12.376 27.4318 12.592 27.1918 13.024C27.0478 13.264 26.9758 13.66 26.9758 14.212V28H23.0878V9.568H26.6518L26.7238 11.296C27.1078 10.576 27.6238 10.048 28.2718 9.712C28.8718 9.376 29.5798 9.208 30.3958 9.208C31.3078 9.208 32.0398 9.484 32.5918 10.036C33.1678 10.636 33.4558 11.776 33.4558 13.456V28ZM34.4917 33.4V30.016H36.8317C37.5037 30.016 37.9717 29.836 38.2357 29.476C38.5237 29.092 38.5597 28.456 38.3437 27.568L34.7077 9.568H38.5957L40.1437 21.484H40.2877L41.6197 9.568H45.5077L42.0877 30.412C41.8957 31.564 41.3557 32.368 40.4677 32.824C39.6997 33.208 38.8237 33.4 37.8397 33.4H34.4917ZM46.568 19.612H50.672V21.88C50.672 22.864 50.756 23.524 50.924 23.86C51.212 24.508 51.812 24.832 52.724 24.832C53.468 24.832 53.996 24.664 54.308 24.328C54.572 24.016 54.704 23.452 54.704 22.636V20.98C54.704 19.876 54.272 18.928 53.408 18.136L49.196 14.248C48.404 13.504 47.84 12.844 47.504 12.268C46.952 11.332 46.676 10.252 46.676 9.028V7.012C46.676 5.788 47.132 4.744 48.044 3.88C49.076 2.92 50.648 2.44 52.76 2.44C54.728 2.44 56.228 2.944 57.26 3.952C58.22 4.888 58.7 6.172 58.7 7.804V10.36H54.596V8.272C54.596 7.48 54.44 6.904 54.128 6.544C53.768 6.16 53.3 5.968 52.724 5.968C52.052 5.968 51.548 6.136 51.212 6.472C50.924 6.76 50.78 7.204 50.78 7.804V8.956C50.78 9.724 51.116 10.408 51.788 11.008L56 14.86C56.6 15.412 57.056 15.88 57.368 16.264C57.704 16.624 58.028 17.164 58.34 17.884C58.652 18.58 58.808 19.348 58.808 20.188V23.068C58.808 24.7 58.328 25.984 57.368 26.92C56.384 27.88 54.908 28.36 52.94 28.36C51.26 28.36 49.856 27.976 48.728 27.208C47.288 26.2 46.568 24.712 46.568 22.744V19.612ZM70.8913 20.944V23.5C70.8913 24.508 70.7473 25.348 70.4593 26.02C69.7633 27.58 68.2153 28.36 65.8153 28.36C63.6553 28.36 62.1433 27.628 61.2793 26.164C60.8233 25.396 60.5953 24.4 60.5953 23.176V14.176C60.5953 12.784 60.8713 11.716 61.4233 10.972C61.8313 10.42 62.4313 9.988 63.2233 9.676C64.0393 9.364 64.9033 9.208 65.8153 9.208C67.7113 9.208 69.1033 9.808 69.9913 11.008C70.5433 11.776 70.8193 12.808 70.8193 14.104V16.66H67.0033V14.284C67.0033 13.78 66.9313 13.396 66.7873 13.132C66.6193 12.772 66.2953 12.592 65.8153 12.592C65.3593 12.592 65.0233 12.736 64.8073 13.024C64.5913 13.288 64.4833 13.696 64.4833 14.248V23.068C64.4833 23.692 64.5793 24.16 64.7713 24.472C64.9873 24.808 65.3353 24.976 65.8153 24.976C66.2713 24.976 66.5953 24.82 66.7873 24.508C66.9313 24.292 67.0033 23.824 67.0033 23.104V20.944H70.8913ZM83.0613 28H79.1733V14.32C79.1733 13.648 79.0893 13.204 78.9213 12.988C78.7053 12.7 78.4173 12.556 78.0573 12.556C77.3853 12.556 76.9533 12.928 76.7613 13.672C76.6413 14.104 76.5813 14.728 76.5813 15.544V28H72.6933V2.8H76.5813V11.404H76.6893C76.8093 10.972 77.0493 10.576 77.4093 10.216C78.0813 9.544 78.9213 9.208 79.9293 9.208C81.1053 9.208 81.9573 9.64 82.4853 10.504C82.8693 11.152 83.0613 12.052 83.0613 13.204V28ZM88.7411 14.212V23.356C88.7411 23.812 88.8011 24.16 88.9211 24.4C89.1371 24.784 89.5091 24.976 90.0371 24.976C90.5651 24.976 90.9371 24.784 91.1531 24.4C91.2731 24.16 91.3331 23.812 91.3331 23.356V14.212C91.3331 13.756 91.2731 13.408 91.1531 13.168C90.9371 12.784 90.5651 12.592 90.0371 12.592C89.5091 12.592 89.1371 12.784 88.9211 13.168C88.8011 13.408 88.7411 13.756 88.7411 14.212ZM95.2211 14.14V23.428C95.2211 24.964 94.8371 26.128 94.0691 26.92C93.1571 27.88 91.8131 28.36 90.0371 28.36C88.2611 28.36 86.9171 27.88 86.0051 26.92C85.2371 26.128 84.8531 24.964 84.8531 23.428V14.14C84.8531 12.604 85.2371 11.44 86.0051 10.648C86.9171 9.688 88.2611 9.208 90.0371 9.208C91.8131 9.208 93.1571 9.688 94.0691 10.648C94.8371 11.44 95.2211 12.604 95.2211 14.14ZM100.905 14.212V23.356C100.905 23.812 100.965 24.16 101.085 24.4C101.301 24.784 101.673 24.976 102.201 24.976C102.729 24.976 103.101 24.784 103.317 24.4C103.437 24.16 103.497 23.812 103.497 23.356V14.212C103.497 13.756 103.437 13.408 103.317 13.168C103.101 12.784 102.729 12.592 102.201 12.592C101.673 12.592 101.301 12.784 101.085 13.168C100.965 13.408 100.905 13.756 100.905 14.212ZM107.385 14.14V23.428C107.385 24.964 107.001 26.128 106.233 26.92C105.321 27.88 103.977 28.36 102.201 28.36C100.425 28.36 99.0812 27.88 98.1692 26.92C97.4012 26.128 97.0172 24.964 97.0172 23.428V14.14C97.0172 12.604 97.4012 11.44 98.1692 10.648C99.0812 9.688 100.425 9.208 102.201 9.208C103.977 9.208 105.321 9.688 106.233 10.648C107.001 11.44 107.385 12.604 107.385 14.14ZM113.249 28H109.361V2.8H113.249V28Z" fill="white"/>
<path d="M5.264 43.304V44.956C5.264 45.6187 5.068 46.1367 4.676 46.51C4.228 46.93 3.63067 47.14 2.884 47.14C2.16533 47.14 1.57733 46.93 1.12 46.51C0.84 46.258 0.658 45.9873 0.574 45.698C0.49 45.3993 0.448 45.054 0.448 44.662V39.286C0.448 38.614 0.667333 38.0773 1.106 37.676C1.554 37.2653 2.13733 37.06 2.856 37.06C3.53733 37.06 4.09267 37.2513 4.522 37.634C4.998 38.054 5.236 38.6513 5.236 39.426V40.504H3.64V39.3C3.64 39.0107 3.57467 38.796 3.444 38.656C3.304 38.5067 3.11267 38.432 2.87 38.432C2.62733 38.432 2.43133 38.4973 2.282 38.628C2.12333 38.768 2.044 39.006 2.044 39.342V44.844C2.044 45.1613 2.10933 45.39 2.24 45.53C2.39867 45.6887 2.618 45.768 2.898 45.768C3.178 45.768 3.38333 45.684 3.514 45.516C3.61667 45.3853 3.668 45.1847 3.668 44.914V43.304H5.264ZM7.48114 41.638V45.194C7.48114 45.3713 7.50447 45.5067 7.55114 45.6C7.63514 45.7493 7.77981 45.824 7.98514 45.824C8.19047 45.824 8.33514 45.7493 8.41914 45.6C8.46581 45.5067 8.48914 45.3713 8.48914 45.194V41.638C8.48914 41.4607 8.46581 41.3253 8.41914 41.232C8.33514 41.0827 8.19047 41.008 7.98514 41.008C7.77981 41.008 7.63514 41.0827 7.55114 41.232C7.50447 41.3253 7.48114 41.4607 7.48114 41.638ZM10.0011 41.61V45.222C10.0011 45.8193 9.85181 46.272 9.55314 46.58C9.19847 46.9533 8.67581 47.14 7.98514 47.14C7.29447 47.14 6.77181 46.9533 6.41714 46.58C6.11847 46.272 5.96914 45.8193 5.96914 45.222V41.61C5.96914 41.0127 6.11847 40.56 6.41714 40.252C6.77181 39.8787 7.29447 39.692 7.98514 39.692C8.67581 39.692 9.19847 39.8787 9.55314 40.252C9.85181 40.56 10.0011 41.0127 10.0011 41.61ZM17.2096 46.972L15.6976 47V41.736C15.6976 41.4933 15.6836 41.3253 15.6556 41.232C15.5996 41.0267 15.4643 40.924 15.2496 40.924C15.0629 40.924 14.9276 40.994 14.8436 41.134C14.7783 41.246 14.7456 41.3953 14.7456 41.582V47H13.2336V41.764C13.2336 41.512 13.2196 41.33 13.1916 41.218C13.1356 41.022 13.0049 40.924 12.7996 40.924C12.6223 40.924 12.4869 40.994 12.3936 41.134C12.3189 41.2553 12.2816 41.4093 12.2816 41.596V47H10.7696V39.832H12.2256L12.2536 40.42C12.3749 40.224 12.5336 40.056 12.7296 39.916C12.9443 39.7667 13.2056 39.692 13.5136 39.692C13.8309 39.692 14.0829 39.7667 14.2696 39.916C14.4376 40.0467 14.5543 40.224 14.6196 40.448C14.7596 40.2147 14.9416 40.0327 15.1656 39.902C15.4176 39.762 15.6883 39.692 15.9776 39.692C16.3603 39.692 16.6589 39.8087 16.8736 40.042C17.0976 40.2753 17.2096 40.6627 17.2096 41.204V46.972ZM19.4867 49.1H17.9747V39.832H19.4027L19.4307 40.392C19.5614 40.224 19.7154 40.084 19.8927 39.972C20.2007 39.7853 20.4947 39.692 20.7747 39.692C21.232 39.692 21.5727 39.8787 21.7967 40.252C21.9367 40.4853 22.0067 40.9007 22.0067 41.498V45.824C22.0067 46.2813 21.9134 46.6313 21.7267 46.874C21.512 47.154 21.1947 47.294 20.7747 47.294C20.4854 47.294 20.21 47.21 19.9487 47.042C19.7434 46.8927 19.6034 46.72 19.5287 46.524L19.4867 46.51V49.1ZM20.4947 45.152V41.652C20.4947 41.372 20.4574 41.176 20.3827 41.064C20.2894 40.952 20.1634 40.896 20.0047 40.896C19.8087 40.896 19.6687 40.9613 19.5847 41.092C19.5194 41.1853 19.4867 41.3813 19.4867 41.68V45.054C19.4867 45.3713 19.5287 45.614 19.6127 45.782C19.734 45.9873 19.888 46.09 20.0747 46.09C20.2427 46.09 20.3594 46.0153 20.4247 45.866C20.4714 45.754 20.4947 45.516 20.4947 45.152ZM26.7355 47H25.3075V46.272H25.2795C25.1582 46.5053 25.0182 46.6967 24.8595 46.846C24.6542 47.042 24.3602 47.14 23.9775 47.14C23.4175 47.14 23.0395 46.93 22.8435 46.51C22.7502 46.3047 22.7035 46.006 22.7035 45.614V39.832H24.2155V44.998C24.2155 45.2967 24.2342 45.4833 24.2715 45.558C24.3368 45.7353 24.4815 45.824 24.7055 45.824C24.9108 45.824 25.0555 45.7353 25.1395 45.558C25.1955 45.4367 25.2235 45.25 25.2235 44.998V39.832H26.7355V47ZM30.5543 47H29.4763C29.0937 47 28.809 46.958 28.6223 46.874C28.4077 46.7713 28.249 46.6127 28.1463 46.398C28.0717 46.2393 28.0343 45.978 28.0343 45.614V41.148H27.2083V39.832H28.0343V37.2H29.5463V39.832H30.5543V41.148H29.5463V45.376C29.5463 45.4787 29.565 45.5533 29.6023 45.6C29.649 45.6467 29.6863 45.6747 29.7143 45.684C29.7423 45.684 29.789 45.684 29.8543 45.684H30.5543V47ZM35.0754 44.76V45.362C35.0754 45.8287 34.9494 46.2253 34.6974 46.552C34.3894 46.944 33.848 47.14 33.0734 47.14C32.3827 47.14 31.8694 46.9627 31.5334 46.608C31.2067 46.2627 31.0434 45.7307 31.0434 45.012V41.638C31.0434 40.9567 31.23 40.462 31.6034 40.154C31.9767 39.846 32.462 39.692 33.0594 39.692C33.666 39.692 34.1514 39.846 34.5154 40.154C34.8887 40.4807 35.0754 41.0033 35.0754 41.722V44.032H32.5554V45.082C32.5554 45.3247 32.5787 45.4973 32.6254 45.6C32.6907 45.7493 32.8354 45.824 33.0594 45.824C33.2834 45.824 33.428 45.7447 33.4934 45.586C33.54 45.4833 33.5634 45.32 33.5634 45.096V44.76H35.0754ZM33.5634 42.8V41.694C33.5634 41.442 33.5214 41.2647 33.4374 41.162C33.3534 41.0593 33.2274 41.008 33.0594 41.008C32.8914 41.008 32.7654 41.0593 32.6814 41.162C32.5974 41.2647 32.5554 41.442 32.5554 41.694V42.8H33.5634ZM37.3558 47H35.8438V39.832H37.3138V40.49H37.3418C37.4352 40.238 37.5798 40.042 37.7758 39.902C37.9812 39.762 38.2425 39.692 38.5598 39.692H38.9938V41.204H38.4478C38.0465 41.204 37.7665 41.2927 37.6078 41.47C37.4398 41.6567 37.3558 41.9693 37.3558 42.408V47ZM42.7191 43.738H44.3151V44.62C44.3151 45.0027 44.3478 45.2593 44.4131 45.39C44.5251 45.642 44.7585 45.768 45.1131 45.768C45.4025 45.768 45.6078 45.7027 45.7291 45.572C45.8318 45.4507 45.8831 45.2313 45.8831 44.914V44.27C45.8831 43.8407 45.7151 43.472 45.3791 43.164L43.7411 41.652C43.4331 41.3627 43.2138 41.106 43.0831 40.882C42.8685 40.518 42.7611 40.098 42.7611 39.622V38.838C42.7611 38.362 42.9385 37.956 43.2931 37.62C43.6945 37.2467 44.3058 37.06 45.1271 37.06C45.8925 37.06 46.4758 37.256 46.8771 37.648C47.2505 38.012 47.4371 38.5113 47.4371 39.146V40.14H45.8411V39.328C45.8411 39.02 45.7805 38.796 45.6591 38.656C45.5191 38.5067 45.3371 38.432 45.1131 38.432C44.8518 38.432 44.6558 38.4973 44.5251 38.628C44.4131 38.74 44.3571 38.9127 44.3571 39.146V39.594C44.3571 39.8927 44.4878 40.1587 44.7491 40.392L46.3871 41.89C46.6205 42.1047 46.7978 42.2867 46.9191 42.436C47.0498 42.576 47.1758 42.786 47.2971 43.066C47.4185 43.3367 47.4791 43.6353 47.4791 43.962V45.082C47.4791 45.7167 47.2925 46.216 46.9191 46.58C46.5365 46.9533 45.9625 47.14 45.1971 47.14C44.5438 47.14 43.9978 46.9907 43.5591 46.692C42.9991 46.3 42.7191 45.7213 42.7191 44.956V43.738ZM52.1782 44.256V45.25C52.1782 45.642 52.1222 45.9687 52.0102 46.23C51.7396 46.8367 51.1376 47.14 50.2042 47.14C49.3642 47.14 48.7762 46.8553 48.4402 46.286C48.2629 45.9873 48.1742 45.6 48.1742 45.124V41.624C48.1742 41.0827 48.2816 40.6673 48.4962 40.378C48.6549 40.1633 48.8882 39.9953 49.1962 39.874C49.5136 39.7527 49.8496 39.692 50.2042 39.692C50.9416 39.692 51.4829 39.9253 51.8282 40.392C52.0429 40.6907 52.1502 41.092 52.1502 41.596V42.59H50.6662V41.666C50.6662 41.47 50.6382 41.3207 50.5822 41.218C50.5169 41.078 50.3909 41.008 50.2042 41.008C50.0269 41.008 49.8962 41.064 49.8122 41.176C49.7282 41.2787 49.6862 41.4373 49.6862 41.652V45.082C49.6862 45.3247 49.7236 45.5067 49.7982 45.628C49.8822 45.7587 50.0176 45.824 50.2042 45.824C50.3816 45.824 50.5076 45.7633 50.5822 45.642C50.6382 45.558 50.6662 45.376 50.6662 45.096V44.256H52.1782ZM54.391 47H52.879V39.832H54.391V47ZM54.391 38.992H52.879V37.2H54.391V38.992ZM59.1925 44.76V45.362C59.1925 45.8287 59.0665 46.2253 58.8145 46.552C58.5065 46.944 57.9652 47.14 57.1905 47.14C56.4999 47.14 55.9865 46.9627 55.6505 46.608C55.3239 46.2627 55.1605 45.7307 55.1605 45.012V41.638C55.1605 40.9567 55.3472 40.462 55.7205 40.154C56.0939 39.846 56.5792 39.692 57.1765 39.692C57.7832 39.692 58.2685 39.846 58.6325 40.154C59.0059 40.4807 59.1925 41.0033 59.1925 41.722V44.032H56.6725V45.082C56.6725 45.3247 56.6959 45.4973 56.7425 45.6C56.8079 45.7493 56.9525 45.824 57.1765 45.824C57.4005 45.824 57.5452 45.7447 57.6105 45.586C57.6572 45.4833 57.6805 45.32 57.6805 45.096V44.76H59.1925ZM57.6805 42.8V41.694C57.6805 41.442 57.6385 41.2647 57.5545 41.162C57.4705 41.0593 57.3445 41.008 57.1765 41.008C57.0085 41.008 56.8825 41.0593 56.7985 41.162C56.7145 41.2647 56.6725 41.442 56.6725 41.694V42.8H57.6805ZM63.993 47H62.481V41.792C62.481 41.484 62.4577 41.2833 62.411 41.19C62.3363 41.0127 62.1963 40.924 61.991 40.924C61.795 40.924 61.6503 41.008 61.557 41.176C61.501 41.2693 61.473 41.4233 61.473 41.638V47H59.961V39.832H61.347L61.375 40.504C61.5243 40.224 61.725 40.0187 61.977 39.888C62.2103 39.7573 62.4857 39.692 62.803 39.692C63.1577 39.692 63.4423 39.7993 63.657 40.014C63.881 40.2473 63.993 40.6907 63.993 41.344V47ZM68.6938 44.256V45.25C68.6938 45.642 68.6378 45.9687 68.5258 46.23C68.2552 46.8367 67.6532 47.14 66.7198 47.14C65.8798 47.14 65.2918 46.8553 64.9558 46.286C64.7785 45.9873 64.6898 45.6 64.6898 45.124V41.624C64.6898 41.0827 64.7972 40.6673 65.0118 40.378C65.1705 40.1633 65.4038 39.9953 65.7118 39.874C66.0292 39.7527 66.3652 39.692 66.7198 39.692C67.4572 39.692 67.9985 39.9253 68.3438 40.392C68.5585 40.6907 68.6658 41.092 68.6658 41.596V42.59H67.1818V41.666C67.1818 41.47 67.1538 41.3207 67.0978 41.218C67.0325 41.078 66.9065 41.008 66.7198 41.008C66.5425 41.008 66.4118 41.064 66.3278 41.176C66.2438 41.2787 66.2018 41.4373 66.2018 41.652V45.082C66.2018 45.3247 66.2392 45.5067 66.3138 45.628C66.3978 45.7587 66.5332 45.824 66.7198 45.824C66.8972 45.824 67.0232 45.7633 67.0978 45.642C67.1538 45.558 67.1818 45.376 67.1818 45.096V44.256H68.6938ZM73.3566 44.76V45.362C73.3566 45.8287 73.2306 46.2253 72.9786 46.552C72.6706 46.944 72.1293 47.14 71.3546 47.14C70.6639 47.14 70.1506 46.9627 69.8146 46.608C69.4879 46.2627 69.3246 45.7307 69.3246 45.012V41.638C69.3246 40.9567 69.5113 40.462 69.8846 40.154C70.2579 39.846 70.7433 39.692 71.3406 39.692C71.9473 39.692 72.4326 39.846 72.7966 40.154C73.1699 40.4807 73.3566 41.0033 73.3566 41.722V44.032H70.8366V45.082C70.8366 45.3247 70.8599 45.4973 70.9066 45.6C70.9719 45.7493 71.1166 45.824 71.3406 45.824C71.5646 45.824 71.7093 45.7447 71.7746 45.586C71.8213 45.4833 71.8446 45.32 71.8446 45.096V44.76H73.3566ZM71.8446 42.8V41.694C71.8446 41.442 71.8026 41.2647 71.7186 41.162C71.6346 41.0593 71.5086 41.008 71.3406 41.008C71.1726 41.008 71.0466 41.0593 70.9626 41.162C70.8786 41.2647 70.8366 41.442 70.8366 41.694V42.8H71.8446ZM82.6007 47H80.9487L80.6687 45.194H78.9607L78.6807 47H77.0287L78.8347 37.2H80.7947L82.6007 47ZM79.1427 43.822H80.4867L79.8287 39.916H79.8007L79.1427 43.822ZM87.0142 44.256V45.25C87.0142 45.642 86.9582 45.9687 86.8462 46.23C86.5755 46.8367 85.9735 47.14 85.0402 47.14C84.2002 47.14 83.6122 46.8553 83.2762 46.286C83.0988 45.9873 83.0102 45.6 83.0102 45.124V41.624C83.0102 41.0827 83.1175 40.6673 83.3322 40.378C83.4908 40.1633 83.7242 39.9953 84.0322 39.874C84.3495 39.7527 84.6855 39.692 85.0402 39.692C85.7775 39.692 86.3188 39.9253 86.6642 40.392C86.8788 40.6907 86.9862 41.092 86.9862 41.596V42.59H85.5022V41.666C85.5022 41.47 85.4742 41.3207 85.4182 41.218C85.3528 41.078 85.2268 41.008 85.0402 41.008C84.8628 41.008 84.7322 41.064 84.6482 41.176C84.5642 41.2787 84.5222 41.4373 84.5222 41.652V45.082C84.5222 45.3247 84.5595 45.5067 84.6342 45.628C84.7182 45.7587 84.8535 45.824 85.0402 45.824C85.2175 45.824 85.3435 45.7633 85.4182 45.642C85.4742 45.558 85.5022 45.376 85.5022 45.096V44.256H87.0142ZM91.5789 47H90.2209L90.2069 46.51C90.1136 46.6593 89.9643 46.7993 89.7589 46.93C89.5349 47.07 89.2363 47.14 88.8629 47.14C88.4243 47.14 88.0929 46.9907 87.8689 46.692C87.6263 46.356 87.5049 45.894 87.5049 45.306C87.5049 44.5687 87.7896 43.9433 88.3589 43.43C88.8349 42.9913 89.4043 42.604 90.0669 42.268V41.68C90.0669 41.4467 90.0343 41.2833 89.9689 41.19C89.8943 41.0687 89.7589 41.008 89.5629 41.008C89.3856 41.008 89.2503 41.0687 89.1569 41.19C89.0916 41.274 89.0589 41.4373 89.0589 41.68V42.17H87.6029V41.344C87.6029 40.9053 87.7429 40.5413 88.0229 40.252C88.3776 39.8787 88.9003 39.692 89.5909 39.692C90.3283 39.692 90.8649 39.8833 91.2009 40.266C91.4529 40.5553 91.5789 40.9847 91.5789 41.554V47ZM90.0669 45.292V43.528C89.6936 43.7707 89.4183 44.0273 89.2409 44.298C89.0916 44.5313 89.0169 44.8393 89.0169 45.222C89.0169 45.474 89.0496 45.6607 89.1149 45.782C89.2083 45.9407 89.3623 46.02 89.5769 46.02C89.7543 46.02 89.8896 45.936 89.9829 45.768C90.0389 45.6653 90.0669 45.5067 90.0669 45.292ZM96.3117 47H94.9257L94.8977 46.356C94.7857 46.5893 94.6457 46.7713 94.4777 46.902C94.263 47.0607 93.955 47.14 93.5537 47.14C93.143 47.14 92.821 46.9813 92.5877 46.664C92.3824 46.3747 92.2797 45.9407 92.2797 45.362V41.162C92.2797 40.686 92.3917 40.3267 92.6157 40.084C92.8584 39.8227 93.1804 39.692 93.5817 39.692C93.8804 39.692 94.123 39.762 94.3097 39.902C94.515 40.0513 94.6784 40.2613 94.7997 40.532V37.2H96.3117V47ZM94.7997 44.984V41.722C94.7997 41.498 94.7624 41.3253 94.6877 41.204C94.585 41.0453 94.4404 40.966 94.2537 40.966C94.1044 40.966 93.9877 41.0267 93.9037 41.148C93.829 41.2507 93.7917 41.428 93.7917 41.68V45.082C93.7917 45.3153 93.815 45.488 93.8617 45.6C93.9364 45.7773 94.067 45.866 94.2537 45.866C94.4777 45.866 94.6317 45.7727 94.7157 45.586C94.7717 45.4553 94.7997 45.2547 94.7997 44.984ZM101.111 44.76V45.362C101.111 45.8287 100.985 46.2253 100.733 46.552C100.425 46.944 99.8832 47.14 99.1085 47.14C98.4178 47.14 97.9045 46.9627 97.5685 46.608C97.2418 46.2627 97.0785 45.7307 97.0785 45.012V41.638C97.0785 40.9567 97.2652 40.462 97.6385 40.154C98.0118 39.846 98.4972 39.692 99.0945 39.692C99.7012 39.692 100.187 39.846 100.551 40.154C100.924 40.4807 101.111 41.0033 101.111 41.722V44.032H98.5905V45.082C98.5905 45.3247 98.6138 45.4973 98.6605 45.6C98.7258 45.7493 98.8705 45.824 99.0945 45.824C99.3185 45.824 99.4632 45.7447 99.5285 45.586C99.5752 45.4833 99.5985 45.32 99.5985 45.096V44.76H101.111ZM99.5985 42.8V41.694C99.5985 41.442 99.5565 41.2647 99.4725 41.162C99.3885 41.0593 99.2625 41.008 99.0945 41.008C98.9265 41.008 98.8005 41.0593 98.7165 41.162C98.6325 41.2647 98.5905 41.442 98.5905 41.694V42.8H99.5985ZM108.319 46.972L106.807 47V41.736C106.807 41.4933 106.793 41.3253 106.765 41.232C106.709 41.0267 106.574 40.924 106.359 40.924C106.172 40.924 106.037 40.994 105.953 41.134C105.888 41.246 105.855 41.3953 105.855 41.582V47H104.343V41.764C104.343 41.512 104.329 41.33 104.301 41.218C104.245 41.022 104.114 40.924 103.909 40.924C103.732 40.924 103.596 40.994 103.503 41.134C103.428 41.2553 103.391 41.4093 103.391 41.596V47H101.879V39.832H103.335L103.363 40.42C103.484 40.224 103.643 40.056 103.839 39.916C104.054 39.7667 104.315 39.692 104.623 39.692C104.94 39.692 105.192 39.7667 105.379 39.916C105.547 40.0467 105.664 40.224 105.729 40.448C105.869 40.2147 106.051 40.0327 106.275 39.902C106.527 39.762 106.798 39.692 107.087 39.692C107.47 39.692 107.768 39.8087 107.983 40.042C108.207 40.2753 108.319 40.6627 108.319 41.204V46.972ZM108.72 49.1V47.784H109.63C109.891 47.784 110.073 47.714 110.176 47.574C110.288 47.4247 110.302 47.1773 110.218 46.832L108.804 39.832H110.316L110.918 44.466H110.974L111.492 39.832H113.004L111.674 47.938C111.599 48.386 111.389 48.6987 111.044 48.876C110.745 49.0253 110.405 49.1 110.022 49.1H108.72Z" fill="white"/>
</svg>
